<?xml version="1.0" encoding="UTF-8"?>
<svg id="Layer_1" data-name="Layer 1" xmlns="http://www.w3.org/2000/svg" viewBox="0 0 150.04 204.6">
  <defs>
    <style>
      .cls-1 {
        fill: #fff;
      }

      .cls-2 {
        fill: #a1a3d1;
      }
    </style>
  </defs>
  <path class="cls-1" d="m133.93,0L21.86,100.55s147.9-30.02,117.39,15.16C108.74,160.88,9.82,204.6,9.82,204.6"/>
  <path class="cls-2" d="m133.93,0C99.21,36.33,62.83,71,26.1,105.28c0,0-5.51-10.97-5.51-10.97,24.83-5.17,49.52-9.05,74.92-10.31,15.23-.3,48.92-1.96,54.06,16.91,2.11,8.47-3.21,16.42-7.88,22.38-5.05,6.42-10.94,12.26-16.94,17.59-14.38,12.48-30.43,22.93-46.86,32.27-21.84,12.28-44.55,22.89-68.07,31.44,32.45-18.22,64.37-37.24,93.23-60.5,10.39-8.57,20.4-17.8,28.39-28.56,1.97-2.87,7.22-9.55,4.48-12.37-7.87-6.37-29.49-5.5-39.82-5.18-31.78,1.43-64.77,7.14-96.11,13.01C43.81,73.14,87.98,35.22,133.93,0h0Z"/>
</svg>